<svg xmlns="http://www.w3.org/2000/svg" viewBox="0 0 32 32" id="rain-night">
  <g>
    <path fill="#d8d8d8" d="M23.59,14A5,5,0,0,0,19,7a5,5,0,0,0-4.06,2.1A4.83,4.83,0,0,0,14,9a5,5,0,0,0-4.95,4.53A4,4,0,0,0,11,21H21a4,4,0,0,0,4-4A3.94,3.94,0,0,0,23.59,14Z"></path>
    <path fill="#b7b7b7" d="M23.59,14A5,5,0,0,0,19,7a4.8,4.8,0,0,0-1.52.25A5,5,0,0,1,21,12a5,5,0,0,1-.41,2A3.94,3.94,0,0,1,22,17a4,4,0,0,1-4,4h3a4,4,0,0,0,4-4A3.94,3.94,0,0,0,23.59,14Z"></path>
    <path fill="#e8d915" d="M10.5,5a4.37,4.37,0,0,0-1.94.46A3,3,0,0,1,6,10a4.47,4.47,0,0,0,2.79,3.67,1.64,1.64,0,0,1,.22-.14A5,5,0,0,1,14,9a4.83,4.83,0,0,1,.94.1l0,0A4.49,4.49,0,0,0,10.5,5Z"></path>
    <path fill="#d6c313" d="M10.5,5a4.37,4.37,0,0,0-1.94.46A3,3,0,0,1,9,7V7a4.07,4.07,0,0,1,.5,0,4.46,4.46,0,0,1,3.75,2.07A4.54,4.54,0,0,1,14,9a4.83,4.83,0,0,1,.94.1l0,0A4.49,4.49,0,0,0,10.5,5Z"></path>
    <path fill="#231f20" d="M21,22a1,1,0,0,1,0-2,3,3,0,0,0,1.94-5.27,1,1,0,0,1-.27-1.15A3.93,3.93,0,0,0,23,12a4,4,0,0,0-7.24-2.32,1,1,0,0,1-1,.4A4.28,4.28,0,0,0,14,10a4,4,0,0,0-4,3.62,1,1,0,0,1-.5.78A3,3,0,0,0,11,20a1,1,0,0,1,0,2,5,5,0,0,1-2.88-9.07A5.9,5.9,0,0,1,14.52,8,6,6,0,0,1,25,12a5.87,5.87,0,0,1-.25,1.72A5,5,0,0,1,21,22Z"></path>
    <path fill="#231f20" d="M8.83 14.67a.94.94 0 0 1-.37-.07A5.5 5.5 0 0 1 5 10.11a1 1 0 0 1 .25-.78A1 1 0 0 1 6 9 2 2 0 0 0 8 7a2 2 0 0 0-.3-1 1 1 0 0 1-.1-.8 1 1 0 0 1 .53-.61A5.39 5.39 0 0 1 10.5 4 5.45 5.45 0 0 1 16 9a1 1 0 0 1-.19.7 1.05 1.05 0 0 1-1 .4A4.28 4.28 0 0 0 14 10a4 4 0 0 0-4 3.62 1 1 0 0 1-.5.78l-.17.11A1 1 0 0 1 8.83 14.67zM7.26 10.79a3.48 3.48 0 0 0 1 1.42A6 6 0 0 1 13.65 8 3.47 3.47 0 0 0 9.88 6.06 3.73 3.73 0 0 1 10 7 4 4 0 0 1 7.26 10.79zM11 28a1 1 0 0 1-1-1V23a1 1 0 0 1 2 0v4A1 1 0 0 1 11 28zM14 25a1 1 0 0 1-1-1V21a1 1 0 0 1 2 0v3A1 1 0 0 1 14 25zM17 27a1 1 0 0 1-1-1V21a1 1 0 0 1 2 0v5A1 1 0 0 1 17 27zM20 28a1 1 0 0 1-1-1V23a1 1 0 0 1 2 0v4A1 1 0 0 1 20 28z"></path>
  </g>
</svg>
