<svg class="svg-icon" style="width: 1.0615234375em;height: 1em;vertical-align: middle;fill: currentColor;overflow: hidden;" viewBox="0 0 1087 1024" version="1.1" xmlns="http://www.w3.org/2000/svg"><path d="M746.356338 847.282761a207.404759 207.404759 0 0 1-74.350838-159.277511c0-5.407916 0.399994-10.703833 0.815987-15.99975H352.0105a95.9985 95.9985 0 0 1 0-191.997h37.583413a95.518508 95.518508 0 0 1-5.583913-31.9995 95.9985 95.9985 0 0 1 95.9985-95.9985h192.812987c-0.399994-5.295917-0.815987-10.591835-0.815987-15.99975 0-84.750676 50.767207-157.517539 123.470071-189.933032 7.279886-26.127592-4.863924-64.414994-27.471571-77.47079-59.50307 103.03839-103.934376 51.999188-135.437884 106.558335a77.310792 77.310792 0 0 0-10.143841 37.74341c-21.455665-7.919876-43.583319-14.431775-66.942954-17.631724C549.239418 184.30112 543.9915 171.709317 543.9915 159.9975c0-40.559366 31.9835-41.887346 31.9835-95.9985 0.016-28.991547-34.303464-63.999-63.967-63.999 0 119.006141-63.999 97.006484-63.999 160.0135 0 14.591772 4.303933 26.991578 9.695848 36.927423a311.643131 311.643131 0 0 0-65.982969 19.279699c-11.007828-6.4159-22.079655-14.767769-28.015562-25.039609-20.271683-35.119451 6.783894-52.287183-20.287683-99.134451-14.495774-25.119608-61.727036-38.271402-87.422634-23.439634 59.50307 103.05439-6.943892 116.014187 24.559616 170.573335a77.214794 77.214794 0 0 0 27.711567 27.695567 326.154904 326.154904 0 0 0-47.759253 49.103233c-12.911798 0-26.927579-1.663974-37.359417-7.67988-35.119451-20.287683-20.271683-48.65524-67.134951-75.710817-25.087608-14.511773-72.574866-2.287964-87.406634 23.407634 103.03839 59.50307 51.999188 103.934376 106.558335 135.437884a77.118795 77.118795 0 0 0 37.74341 10.127842c-7.935876 21.471665-14.463774 43.615319-17.663724 66.974953-10.975829 6.223903-23.551632 11.487821-35.247449 11.487821-40.559366 0-41.871346-31.9995-95.9985-31.9995-28.991547-0.016-63.999 34.303464-63.999 63.967 119.006141 0 97.006484 63.999 160.0135 63.999 14.527773 0 26.87958-4.271933 36.799425-9.647849 3.951938 23.03964 10.671833 45.055296 19.327698 66.046968-6.3999 10.991828-14.73577 21.983657-24.97561 27.887564-35.119451 20.271683-52.271183-6.783894-99.134451 20.287683-25.103608 14.495774-38.271402 61.743035-23.439634 87.422634 103.05439-59.50307 116.014187 6.927892 170.573335-24.575616a77.118795 77.118795 0 0 0 27.663568-27.647568 326.170904 326.170904 0 0 0 49.135232 47.727254c0 12.911798-1.663974 26.91158-7.67988 37.343417-20.287683 35.087452-48.65524 20.255684-75.710817 67.118951-14.495774 25.103608-2.271965 72.590866 23.423634 87.422634 59.50307-103.03839 103.934376-51.999188 135.437884-106.558335 7.487883-12.975797 9.967844-26.23959 10.143841-37.75941 21.455665 7.919876 43.599319 14.431775 66.942954 17.631725 6.223903 10.975829 11.50382 23.583632 11.503821 35.311448 0 40.543367-31.9995 41.871346-31.9995 95.9985 0 29.007547 34.319464 63.999 63.999 63.999 0-119.006141 63.983-97.006484 63.983-159.9975 0-14.607772-4.303933-27.007578-9.695849-36.959423a311.227137 311.227137 0 0 0 65.96697-19.279698c11.007828 6.4159 22.095655 14.783769 28.031562 25.055608 20.287683 35.103452-6.783894 52.271183 20.287683 99.134451 14.495774 25.119608 61.727036 38.271402 87.438633 23.439634-31.855502-55.087139-27.647568-84.398681-21.679661-108.110311z" fill="#FFCC66" /><path d="M875.634318 544.0075H352.986485c-18.223715 0-32.975485 14.319776-32.975485 31.9995 0 17.663724 14.75177 31.9995 32.975485 31.9995h522.647833c45.535289 0 82.430712 35.807441 82.430712 79.99875 0 44.17531-36.911423 79.99875-82.430712 79.99875s-82.414712-35.82344-82.414712-79.99875c0-17.679724-14.767769-31.9995-32.975485-31.9995s-32.975485 14.319776-32.975485 31.9995c0 79.518758 66.414962 143.99775 148.349682 143.99775 81.95072 0 148.365682-64.478993 148.365682-143.99775 0.016-79.534757-66.398963-143.99775-148.349682-143.99775zM875.634318 192.013c-81.93472 0-148.349682 64.462993-148.349682 143.99775 0 17.663724 14.767769 31.9995 32.975485 31.9995s32.975485-14.335776 32.975485-31.9995c0-44.19131 36.911423-79.99875 82.414712-79.99875 45.535289 0 82.430712 35.807441 82.430712 79.99875s-36.911423 79.99875-82.430712 79.99875H480.984485c-18.223715 0-32.975485 14.335776-32.975485 31.9995s14.75177 31.9995 32.975485 31.9995h394.649833c81.95072 0 148.365682-64.462993 148.365682-143.99775s-66.414962-143.99775-148.365682-143.99775z" fill="#72C1F7" /></svg>