<?xml version="1.0" encoding="utf-8"?>
<!-- Generator: Adobe Illustrator 21.1.0, SVG Export Plug-In . SVG Version: 6.00 Build 0)  -->
<svg version="1.1" id="Calque_1" xmlns="http://www.w3.org/2000/svg" xmlns:xlink="http://www.w3.org/1999/xlink" x="0px" y="0px"
	 viewBox="0 0 150 150" style="enable-background:new 0 0 150 150;" xml:space="preserve">
<style type="text/css">
	.st0{opacity:0.33;fill:#FDE90C;enable-background:new    ;}
	.st1{fill:#F6B21C;}
	.st2{opacity:0.5;fill:#FFFFFF;enable-background:new    ;}
</style>
<title>Plan de travail 1</title>
<circle class="st0" cx="70.8" cy="74.8" r="40.2"/>
<circle class="st1" cx="70.8" cy="74.8" r="31.8"/>
<path class="st2" d="M92.1,66.2c-2,0-4,0.3-5.9,1c0-0.3,0-0.7,0-1c0-9.8-7.9-17.7-17.7-17.7s-17.7,7.9-17.7,17.7
	c0,0.8,0,1.5,0.2,2.3c-1.5-0.6-3-0.8-4.6-0.8c-6.3,0-11.7,4.5-13,10.7c-6.4,1.5-10.3,7.9-8.8,14.2c1.3,5.3,6,9.1,11.5,9.1h56.2
	c0.5,0,1,0,1.5-0.1c9.8-0.8,17-9.4,16.2-19.1C109,73.3,101.3,66.2,92.1,66.2z"/>
<path class="st2" d="M115.6,73.1c-2.4,0-4.7,0.4-6.9,1.2c0-0.4,0-0.8,0-1.2c0-11.4-9.3-20.7-20.7-20.7c-11.4,0-20.7,9.3-20.7,20.7
	c0,0.9,0.1,1.8,0.2,2.7c-1.7-0.7-3.5-1-5.3-1c-7.4,0-13.7,5.2-15.2,12.4c-7.4,1.8-12,9.2-10.2,16.6c1.5,6.2,7,10.6,13.4,10.6h65.5
	c0.6,0,1.2,0,1.7-0.1c11.4-0.9,19.8-10.9,18.9-22.3C135.3,81.3,126.3,73,115.6,73.1L115.6,73.1z"/>
<path class="st2" d="M82,78.9c-2,0-4,0.3-5.9,1c0-0.3,0-0.7,0-1c0-9.8-7.9-17.7-17.7-17.7s-17.7,7.9-17.7,17.7c0,0.8,0,1.5,0.2,2.3
	c-1.5-0.6-3-0.8-4.6-0.8c-6.3,0-11.7,4.4-13,10.6c-6.4,1.5-10.3,7.9-8.8,14.2c1.3,5.3,6,9.1,11.5,9.1H82c0.5,0,1,0,1.5-0.1
	c9.7-1.1,16.8-9.8,15.7-19.6C98.2,85.9,90.9,79.1,82,78.9z"/>
</svg>
